<svg xmlns="http://www.w3.org/2000/svg" viewBox="0 0 512 512" width="100" height="100">
  <circle cx="256" cy="256" r="240" fill="#ffd082"/>
  <path d="M256 272v-32c-16.56 0-30-13.44-30-30s13.44-30 30-30 30 13.44 30 30v32h16v-32c0-30.88-25.12-56-56-56s-56 25.12-56 56 25.12 56 56 56v32z" fill="#ff914d"/>
  <path d="M397.26 272.47l-133.5-94.38a30 30 0 00-33.52 0l-133.5 94.38A30 30 0 0096 301.54V428a30 30 0 0030 30h260a30 30 0 0030-30V301.54a30 30 0 00-18.74-28.07z" fill="#fff"/>
  <path d="M256 176v32h16v-32c0-8.84 7.16-16 16-16s16 7.16 16 16v32h16v-32c0-24.54-19.46-44-44-44s-44 19.46-44 44v32h16v-32c0-8.84 7.16-16 16-16s16 7.16 16 16zM384 360h-16v-32h16c8.84 0 16-7.16 16-16s-7.16-16-16-16h-16v-32h16c8.84 0 16-7.16 16-16s-7.16-16-16-16h-16v-32c0-8.84-7.16-16-16-16s-16 7.16-16 16v32h-16v-32c0-24.54 19.46-44 44-44s44 19.46 44 44v32z" fill="#ff914d"/>
</svg>
